<svg id="Layer_1" data-name="Layer 1" xmlns="http://www.w3.org/2000/svg" viewBox="0 0 300 250"><defs><style>.cls-1{fill:#131414;}.cls-2{fill:#fff;}</style></defs><rect class="cls-1" width="300" height="250"/><path class="cls-2" d="M248.72,139.93c.92,0,2.26-1.49,2.73-2.17a5.6,5.6,0,0,0,1-3.82c-.13-.91-.95-2.32-2-2.32-5.58,0-11.16.08-16.74,0-8.7-.19-12.64-9.28-11.88-16.94a30,30,0,0,1,10.29-19.25,21.11,21.11,0,0,1,6.08-3.69,20,20,0,0,1,4.34-1.08,67,67,0,0,1,9.6-.22c10.56-.06,21.12,0,31.68,0h1.56l-6,16.71h-34c-1.12,0-2.42,1.48-3,2.29a4.87,4.87,0,0,0-.92,4.1,2.86,2.86,0,0,0,.75,1.4c1,.93,2.59.61,3.81.61h5c6.45,0,13.8-1.31,18.27,4.47a16.35,16.35,0,0,1,3.11,10.17,30.42,30.42,0,0,1-2.77,11.63,22.63,22.63,0,0,1-2.91,4.91,29.92,29.92,0,0,1-5.29,5.44,28.29,28.29,0,0,1-5,3.09,15,15,0,0,1-3.19,1,17.84,17.84,0,0,1-3.92.23q-33.84,0-67.69,0h-1.57c.86-4.53,8.42-28.26,8.95-30.15.27-1,1.75-5.66,1.75-5.66-9.11,11.88-18.66,24-27.74,35.78h-7.61s-5.8-33.07-6.17-35.5c0,.32-14.4,35.12-14.62,35.5h-19c4.6-11.9,20.83-55.78,24.72-65.68,7.84,0,15.69-.11,23.53,0l5.65,32.64c5.85-7.77,24.7-32.67,24.7-32.67h25.07c-.93,2-14.07,46.55-15.05,49.25Z"/><path class="cls-2" d="M135.82,90.67c-6.91,17.87-13.51,35.86-20.37,53.75-.84,2.21-1.65,4.43-2.41,6.67-.25.76-1.24,5.59-2.33,5.59H91.13c2.06-5.4,4-10.83,6-16.26l3.35-9.13c.49-1.34,1-2.64,1.54-3.94.32-.71,1.28-1.17,1.87-1.64,1.14-.9,2.24-1.85,3.35-2.77,3.15-2.56,6.26-5.16,9.38-7.75.88-.73,8.49-7.56,8.77-7.37-.09-.06-.15-.12-.16-.11l-78.39,52H14.65c1-.77,1.85-1.48,2.76-2,7.93-4.77,15.47-10.39,23.15-15.56l24.21-16.31L113.2,93.14c1-.67,2-1.45,3-2a2.56,2.56,0,0,1,1.32-.44C123.62,90.68,129.69,90.67,135.82,90.67Z"/></svg>